<?xml version="1.0" standalone="no"?>
<!DOCTYPE svg PUBLIC "-//W3C//DTD SVG 20010904//EN"
 "http://www.w3.org/TR/2001/REC-SVG-20010904/DTD/svg10.dtd">
<svg version="1.0" xmlns="http://www.w3.org/2000/svg"
 width="1280.000000pt" height="422.000000pt" viewBox="0 0 1280.000000 422.000000"
 preserveAspectRatio="xMidYMid meet">

<g transform="translate(0.000000,422.000000) scale(0.100000,-0.100000)"
fill="#FFF" stroke="none">
<path d="M27 4213 c-4 -3 -7 -953 -7 -2110 l0 -2103 1223 2 1222 3 0 395 0
395 -692 3 -693 2 0 1710 0 1710 -523 0 c-288 0 -527 -3 -530 -7z"/>
<path d="M2967 4213 c-4 -3 -7 -953 -7 -2110 l0 -2103 528 2 527 3 0 2105 0
2105 -521 3 c-286 1 -524 -1 -527 -5z"/>
<path d="M4150 3333 l0 -888 116 -305 c136 -357 258 -682 356 -940 256 -679
442 -1168 450 -1182 8 -17 39 -18 442 -18 l433 0 131 348 c133 353 373 991
599 1587 68 182 145 386 169 455 25 69 49 129 55 135 5 5 9 -467 9 -1258 l0
-1267 530 0 530 0 0 2110 0 2110 -634 0 -633 0 -186 -457 c-102 -252 -256
-631 -342 -843 -86 -212 -182 -450 -215 -530 -223 -548 -334 -823 -381 -943
-42 -107 -56 -134 -65 -125 -7 7 -46 96 -87 198 -41 102 -127 313 -191 470
-65 157 -183 445 -263 640 -80 195 -205 501 -278 680 -74 179 -187 456 -252
615 l-119 290 -87 3 -87 3 0 -888z"/>
<path d="M9970 4200 c-10 -19 -52 -131 -315 -850 -339 -927 -408 -1116 -507
-1385 -61 -165 -121 -329 -133 -365 -13 -36 -147 -404 -299 -819 -152 -415
-276 -760 -276 -767 0 -12 93 -14 549 -14 l549 0 46 137 c25 76 82 242 125
368 l79 230 810 3 811 2 19 -52 c10 -29 68 -196 128 -370 l109 -318 557 0
c307 0 558 2 558 4 0 4 -172 479 -340 936 -297 808 -752 2053 -1095 2995
l-102 280 -631 3 c-627 2 -631 2 -642 -18z m715 -1320 c71 -214 239 -708 369
-1085 42 -121 76 -228 76 -237 0 -17 -32 -18 -530 -18 -291 0 -530 2 -530 5 0
3 58 177 129 387 428 1267 396 1178 410 1162 4 -5 38 -101 76 -214z"/>
</g>
</svg>
